<?xml version="1.0" encoding="UTF-8" standalone="no"?>
<!-- Created with Inkscape (http://www.inkscape.org/) -->

<svg
   width="170.13486mm"
   height="51.923771mm"
   viewBox="0 0 170.13486 51.923771"
   version="1.1"
   id="svg1"
   xml:space="preserve"
   sodipodi:docname="Logo-project.svg"
   inkscape:version="1.3.2 (091e20e, 2023-11-25, custom)"
   xmlns:inkscape="http://www.inkscape.org/namespaces/inkscape"
   xmlns:sodipodi="http://sodipodi.sourceforge.net/DTD/sodipodi-0.dtd"
   xmlns="http://www.w3.org/2000/svg"
   xmlns:svg="http://www.w3.org/2000/svg"><sodipodi:namedview
     id="namedview1"
     pagecolor="#ffffff"
     bordercolor="#eeeeee"
     borderopacity="1"
     inkscape:showpageshadow="0"
     inkscape:pageopacity="0"
     inkscape:pagecheckerboard="0"
     inkscape:deskcolor="#505050"
     inkscape:document-units="mm"
     inkscape:zoom="1.4142136"
     inkscape:cx="1063.8422"
     inkscape:cy="2265.9237"
     inkscape:window-width="2520"
     inkscape:window-height="1591"
     inkscape:window-x="-9"
     inkscape:window-y="-9"
     inkscape:window-maximized="1"
     inkscape:current-layer="layer1" /><defs
     id="defs1" /><g
     inkscape:label="Layer 1"
     inkscape:groupmode="layer"
     id="layer1"
     transform="translate(-233.73467,-731.90489)"><path
       style="font-size:37.0417px;font-family:Coolvetica;-inkscape-font-specification:Coolvetica;fill:#ffffff;stroke-width:1.2;stroke-miterlimit:0"
       d="m 248.51668,747.49944 h -6.26004 l 3.14854,-9.77901 h 0.037 z m 8.63072,9.29747 -8.66776,-24.59569 h -5.96371 l -8.77889,24.59569 h 5.44513 l 1.74096,-5.07471 h 9.07522 l 1.55575,5.07471 z m 6.07482,0 v -24.89202 h -4.81542 v 24.89202 z m 6.59341,-10.89026 c 0.18521,-2.51884 1.778,-4.00051 3.70417,-4.00051 1.88912,0 3.66712,1.29646 3.74121,4.00051 z m 12.40897,3.03742 c 0,-7.22313 -2.96334,-10.85322 -8.55664,-10.85322 -5.59329,0 -8.81592,3.63009 -8.81592,9.26042 0,6.59343 3.03742,9.92718 9.11226,9.92718 3.88938,0 6.88975,-2.11138 8.001,-5.85259 h -4.96358 c -0.33338,1.25942 -1.70392,2.03729 -3.25967,2.03729 -2.37067,0 -3.92642,-1.778 -4.07459,-4.51908 z m 17.26144,-4.85246 c -0.25929,-3.92642 -2.62996,-6.00076 -7.88988,-6.00076 -5.55626,0 -7.66764,2.33363 -7.66764,5.40809 0,1.62983 0.59267,3.03742 2.29659,4.11163 1.29646,0.81491 3.00038,1.3335 6.07484,2.07433 1.55575,0.37042 2.92629,0.77788 2.92629,2.07434 0,1.37054 -1.51871,1.88912 -3.22263,1.88912 -2.33362,0 -3.77825,-1.00012 -3.77825,-2.70404 h -4.96359 c 0.0741,3.70417 3.18559,6.33413 8.77889,6.33413 5.18583,0 7.96396,-2.25954 7.96396,-6.0378 0,-2.37067 -1.07421,-3.63008 -3.00038,-4.40796 -1.40758,-0.55562 -3.37079,-0.96308 -5.44513,-1.55575 -1.96321,-0.55563 -2.96333,-1.00013 -2.96333,-2.07434 0,-1.0742 1.03717,-1.51871 2.85221,-1.51871 2.18546,0 3.14854,0.62971 3.40784,2.40772 z m 17.48368,0 c -0.25929,-3.92642 -2.62996,-6.00076 -7.88988,-6.00076 -5.55625,0 -7.66763,2.33363 -7.66763,5.40809 0,1.62983 0.59267,3.03742 2.29658,4.11163 1.29646,0.81491 3.00038,1.3335 6.07484,2.07433 1.55575,0.37042 2.9263,0.77788 2.9263,2.07434 0,1.37054 -1.51871,1.88912 -3.22263,1.88912 -2.33363,0 -3.77825,-1.00012 -3.77825,-2.70404 h -4.96359 c 0.0741,3.70417 3.18558,6.33413 8.77888,6.33413 5.18584,0 7.96397,-2.25954 7.96397,-6.0378 0,-2.37067 -1.07421,-3.63008 -3.00038,-4.40796 -1.40759,-0.55562 -3.3708,-0.96308 -5.44513,-1.55575 -1.96321,-0.55563 -2.96334,-1.00013 -2.96334,-2.07434 0,-1.0742 1.03717,-1.51871 2.85221,-1.51871 2.18546,0 3.14855,0.62971 3.40784,2.40772 z m 12.92756,5.7785 c -0.037,2.14842 -1.88913,3.96346 -4.37092,3.96346 -1.51871,0 -2.33363,-0.66675 -2.33363,-2.03729 0,-1.55575 0.889,-2.33363 3.63009,-2.85221 1.778,-0.33338 2.62996,-0.59267 3.1115,-1.07421 z m 4.85246,6.9268 v -11.51997 c 0,-4.59317 -2.00025,-7.18609 -7.77875,-7.18609 -5.85259,0 -7.92693,2.62996 -8.00101,6.40821 h 4.48205 c 0.22225,-1.62983 1.11125,-2.70404 3.29671,-2.70404 1.88912,0 3.07446,0.70379 3.07446,1.88913 0,1.25941 -0.66675,1.74096 -3.07446,2.07433 -4.85247,0.66675 -8.37143,1.25942 -8.37143,6.51934 0,2.96334 1.92617,5.00063 6.07484,5.00063 2.44475,0 4.37092,-0.85196 5.51921,-2.11138 0.0371,0.55563 0.14817,1.18534 0.29634,1.62984 z m 18.63198,0 v -12.63122 c 0,-3.96346 -2.55588,-6.07484 -6.0378,-6.07484 -2.92629,0 -4.77838,1.11125 -5.88963,3.14854 v -2.667 h -4.59317 v 18.22452 h 4.81542 v -10.44576 c 0,-2.77813 1.22238,-4.18571 3.74121,-4.18571 2.29659,0 3.11151,0.77787 3.11151,3.59304 v 11.03843 z m 10.74211,-3.44488 c -2.40771,0 -4.11163,-2.25954 -4.11163,-5.51921 0,-3.74121 1.3335,-5.63034 4.14867,-5.63034 2.667,0 4.03754,1.96321 4.03754,5.92667 0,3.07446 -1.778,5.22288 -4.07458,5.22288 z m 8.63071,3.44488 v -24.89202 h -4.74134 v 9.03817 c -1.37054,-1.92617 -3.14854,-2.85221 -5.40808,-2.85221 -4.7043,0 -7.48243,3.88938 -7.48243,9.40859 0,6.14892 3.29671,9.77901 7.88988,9.77901 2.22251,0 3.92642,-0.85196 5.07472,-2.70404 l 0.037,2.2225 z m 6.92682,0 v -9.48268 c 0,-2.92629 1.44462,-4.40796 4.40796,-4.40796 0.4445,0 0.889,0.037 1.3335,0.11113 v -4.92655 h -0.62971 c -1.96321,0 -3.81529,0.22225 -5.40809,2.667 v -2.18546 h -4.51908 v 18.22452 z m 14.92775,-3.55601 c -2.92629,0 -4.40796,-1.85208 -4.40796,-5.55625 0,-3.70417 1.48167,-5.51921 4.40796,-5.51921 2.92629,0 4.40796,1.81504 4.40796,5.51921 0,3.70417 -1.48167,5.55625 -4.40796,5.55625 z m 0,4.03755 c 5.66738,0 9.26042,-3.8153 9.26042,-9.5938 0,-5.81555 -3.556,-9.5938 -9.26042,-9.5938 -5.77851,0 -9.37155,3.81529 -9.37155,9.5938 0,5.66738 3.48192,9.5938 9.37155,9.5938 z"
       id="path76"
       aria-label="Alessandro&#10;" /><path
       style="font-size:37.0417px;font-family:Coolvetica;-inkscape-font-specification:Coolvetica;letter-spacing:0px;fill:#ffffff;stroke-width:1.2;stroke-miterlimit:0"
       d="m 248.5143,774.04961 h -6.26005 l 3.14855,-9.77901 h 0.037 z m 8.63072,9.29747 -8.66776,-24.59569 h -5.96371 l -8.77889,24.59569 h 5.44513 l 1.74096,-5.07471 h 9.07522 l 1.55575,5.07471 z m 27.33676,0 v -12.63122 c 0,-3.40784 -2.55588,-6.07484 -6.22301,-6.07484 -2.29658,0 -3.92642,0.889 -4.92654,2.88925 -1.40759,-2.11137 -2.59292,-2.88925 -5.07472,-2.88925 -2.40771,0 -4.11162,0.74083 -5.334,3.14855 v -2.66701 h -4.51909 v 18.22452 h 4.81542 v -11.07547 c 0,-2.37067 1.00013,-3.556 2.9263,-3.556 2.11137,0 2.88925,0.74083 2.88925,3.66713 v 10.96434 h 4.81542 v -10.89026 c 0,-2.2225 1.29646,-3.88938 3.07446,-3.88938 1.70392,0 2.85221,1.55575 2.85221,3.74121 v 11.03843 z m 12.8905,-6.9268 c -0.037,2.14842 -1.88913,3.96346 -4.37092,3.96346 -1.51871,0 -2.33363,-0.66675 -2.33363,-2.03729 0,-1.55575 0.889,-2.33363 3.63009,-2.85221 1.778,-0.33338 2.62996,-0.59267 3.1115,-1.07421 z m 4.85246,6.9268 v -11.51997 c 0,-4.59317 -2.00025,-7.18609 -7.77875,-7.18609 -5.85259,0 -7.92693,2.62996 -8.00101,6.40821 h 4.48204 c 0.22225,-1.62983 1.11126,-2.70404 3.29672,-2.70404 1.88912,0 3.07446,0.70379 3.07446,1.88913 0,1.25942 -0.66675,1.74096 -3.07446,2.07433 -4.85247,0.66675 -8.37143,1.25942 -8.37143,6.51934 0,2.96334 1.92617,5.00063 6.07484,5.00063 2.44475,0 4.37092,-0.85196 5.51921,-2.11138 0.037,0.55563 0.14817,1.18534 0.29634,1.62984 z m 6.9268,0 v -9.48268 c 0,-2.92629 1.44463,-4.40796 4.40796,-4.40796 0.4445,0 0.889,0.037 1.3335,0.11113 v -4.92655 h -0.62971 c -1.96321,0 -3.81529,0.22225 -5.40808,2.667 v -2.18546 h -4.51909 v 18.22452 z m 17.22435,-6.9268 c -0.037,2.14842 -1.88913,3.96346 -4.37092,3.96346 -1.51871,0 -2.33363,-0.66675 -2.33363,-2.03729 0,-1.55575 0.889,-2.33363 3.63009,-2.85221 1.778,-0.33338 2.62996,-0.59267 3.1115,-1.07421 z m 4.85246,6.9268 v -11.51997 c 0,-4.59317 -2.00025,-7.18609 -7.77876,-7.18609 -5.85258,0 -7.92692,2.62996 -8.001,6.40821 h 4.48204 c 0.22225,-1.62983 1.11125,-2.70404 3.29671,-2.70404 1.88913,0 3.07447,0.70379 3.07447,1.88913 0,1.25942 -0.66676,1.74096 -3.07447,2.07433 -4.85246,0.66675 -8.37142,1.25942 -8.37142,6.51934 0,2.96334 1.92617,5.00063 6.07484,5.00063 2.44475,0 4.37092,-0.85196 5.51921,-2.11138 0.037,0.55563 0.14817,1.18534 0.29634,1.62984 z"
       id="path77"
       aria-label="Amara&#10;" /></g></svg>
