<?xml version="1.0" encoding="UTF-8" standalone="no"?>
<!-- Created with Inkscape (http://www.inkscape.org/) -->

<svg
   width="45.486111mm"
   height="46.200283mm"
   viewBox="0 0 45.486111 46.200283"
   version="1.1"
   id="svg1"
   xml:space="preserve"
   sodipodi:docname="Logo-project.svg"
   inkscape:version="1.3.2 (091e20e, 2023-11-25, custom)"
   xmlns:inkscape="http://www.inkscape.org/namespaces/inkscape"
   xmlns:sodipodi="http://sodipodi.sourceforge.net/DTD/sodipodi-0.dtd"
   xmlns="http://www.w3.org/2000/svg"
   xmlns:svg="http://www.w3.org/2000/svg"><sodipodi:namedview
     id="namedview1"
     pagecolor="#ffffff"
     bordercolor="#eeeeee"
     borderopacity="1"
     inkscape:showpageshadow="0"
     inkscape:pageopacity="0"
     inkscape:pagecheckerboard="0"
     inkscape:deskcolor="#505050"
     inkscape:document-units="mm"
     inkscape:zoom="1.4142136"
     inkscape:cx="1063.8422"
     inkscape:cy="2265.9237"
     inkscape:window-width="2520"
     inkscape:window-height="1591"
     inkscape:window-x="-9"
     inkscape:window-y="-9"
     inkscape:window-maximized="1"
     inkscape:current-layer="layer1" /><defs
     id="defs1" /><g
     inkscape:label="Layer 1"
     inkscape:groupmode="layer"
     id="layer1"
     transform="translate(-148.95182,-685.70457)"><g
       id="g75"
       inkscape:export-filename="..\..\..\..\..\..\Alam\my-portfolio-2023\public\assets\alam-logo.svg"
       inkscape:export-xdpi="96"
       inkscape:export-ydpi="96"
       transform="translate(-147.10833)"
       style="fill:#ffffff;fill-opacity:1"><path
         d="m 328.79716,703.74845 c -6.62543,0.0694 -11.05462,1.78025 -11.05462,1.78025 -4.84414,1.92858 -7.38353,6.39599 -7.38353,6.39599 -1.81067,4.17204 -0.7059,7.18303 -0.7059,7.18303 0.82026,1.90583 2.1213,2.46019 3.28869,2.50217 1.47284,0.053 3.21873,-1.48405 3.67264,-2.67064 0.0526,-0.13746 0.10302,-0.27501 0.15141,-0.41186 0.44532,-1.25942 0.59429,-3.39227 0.92966,-4.67207 0.67168,-2.56318 2.43138,-3.88141 2.43138,-3.88141 3.33232,-3.18731 9.95928,-2.9275 9.98647,-2.92644 l 0.0377,-3.28972 c -0.46055,-0.0111 -0.91223,-0.0139 -1.35392,-0.009 z"
         style="fill:#ffffff;fill-opacity:1;stroke-width:0.0857851;stroke-miterlimit:5.4"
         id="path74"
         inkscape:export-filename="Logo-sponsor.svg"
         inkscape:export-xdpi="96"
         inkscape:export-ydpi="96" /><path
         d="m 296.06014,685.70459 v 32.72668 a 13.485013,13.473696 0 0 0 13.48548,13.4736 h 32.00063 v -37.65404 a 8.5536574,8.5464792 0 0 0 -8.55348,-8.54624 z m 7.48637,4.72271 h 26.60457 l 0.97307,0.0434 a 5.2940493,4.4304809 0 0 1 5.01106,4.42402 v 1.82263 30.11289 l -5.98413,-0.2682 c 0,0 -0.0756,-15.83899 -0.0377,-16.55971 -3.31131,0.44404 -4.49481,1.59215 -4.49481,1.59215 0,0 -1.76502,1.42595 -1.95234,6.23683 -0.59462,7.04143 -5.13175,8.70727 -7.45122,9.09763 -0.73827,0.12425 -1.96274,0.18858 -2.7156,0.22686 -13.81275,0.70244 -11.94294,-12.63385 -11.94294,-12.63385 3.96831,-18.47973 28.59464,-16.69872 28.59464,-16.69872 v -1.37408 h -26.60458 z"
         style="fill:#ffffff;fill-opacity:1;stroke-width:0.0857851;stroke-miterlimit:5.4"
         id="path75" /></g></g></svg>
