<?xml version="1.0" encoding="UTF-8" standalone="no"?>
<!-- Created with Inkscape (http://www.inkscape.org/) -->

<svg
   width="39.172447mm"
   height="39.172447mm"
   viewBox="0 0 39.172447 39.172447"
   version="1.1"
   id="svg1"
   inkscape:version="1.3.2 (091e20e, 2023-11-25, custom)"
   sodipodi:docname="AQ.svg"
   xml:space="preserve"
   xmlns:inkscape="http://www.inkscape.org/namespaces/inkscape"
   xmlns:sodipodi="http://sodipodi.sourceforge.net/DTD/sodipodi-0.dtd"
   xmlns="http://www.w3.org/2000/svg"
   xmlns:svg="http://www.w3.org/2000/svg"><sodipodi:namedview
     id="namedview1"
     pagecolor="#ffffff"
     bordercolor="#999999"
     borderopacity="1"
     inkscape:showpageshadow="2"
     inkscape:pageopacity="0"
     inkscape:pagecheckerboard="0"
     inkscape:deskcolor="#d1d1d1"
     inkscape:document-units="mm"
     inkscape:zoom="0.70710678"
     inkscape:cx="967.32208"
     inkscape:cy="135.0574"
     inkscape:window-width="2301"
     inkscape:window-height="1319"
     inkscape:window-x="502"
     inkscape:window-y="18"
     inkscape:window-maximized="0"
     inkscape:current-layer="layer1"
     showguides="true"><sodipodi:guide
       position="-312.01562,536.83241"
       orientation="1,0"
       id="guide3"
       inkscape:locked="false" /><inkscape:page
       x="-2.8760027e-07"
       y="1.500112e-06"
       width="39.172447"
       height="39.172447"
       id="page3"
       margin="0"
       bleed="0" /></sodipodi:namedview><defs
     id="defs1" /><g
     inkscape:label="Layer 1"
     inkscape:groupmode="layer"
     id="layer1"
     transform="translate(-252.33434,-288.00447)"><g
       id="g440"
       inkscape:export-filename="g424.jpg"
       inkscape:export-xdpi="96"
       inkscape:export-ydpi="96"
       transform="matrix(0.5826134,0,0,0.5826134,106.19297,281.52974)"><path
         style="fill:none;fill-opacity:1;stroke:#ffffff;stroke-width:0.457053;stroke-linecap:round;stroke-linejoin:round;stroke-miterlimit:13.6;stroke-dasharray:none;stroke-opacity:1;paint-order:fill markers stroke"
         d="m 292.09255,64.429442 -1.56258,0.681972 2.37804,0.13312 c 0,0 -6.81112,4.111551 -15.13131,0.546595 l 1.55586,-1.817755 8.17985,-0.267188 z"
         id="path4"
         sodipodi:nodetypes="ccccccc" /><path
         style="fill:none;fill-opacity:1;stroke:#ffffff;stroke-width:0.457053;stroke-linecap:round;stroke-linejoin:round;stroke-miterlimit:13.6;stroke-dasharray:none;stroke-opacity:1;paint-order:fill markers stroke"
         d="m 276.99787,25.03274 1.56259,-0.681971 -2.37804,-0.133121 c 0,0 6.81112,-4.111545 15.13131,-0.546595 l -1.55586,1.817756 -8.17985,0.267188 z"
         id="path50"
         sodipodi:nodetypes="ccccccc" /><path
         style="fill:#f9f9f9;fill-opacity:1;stroke:#ffffff;stroke-width:0.422978;stroke-linecap:round;stroke-linejoin:round;stroke-miterlimit:13.6;stroke-dasharray:none;stroke-opacity:1;paint-order:fill markers stroke"
         d="m 290.49255,64.367752 c 0,0 4.24288,0.493747 5.69293,-0.80097 0,0 -0.94988,-0.302392 -1.29083,-0.647516 0,0 3.07822,-0.302534 4.1808,-1.660513 0,0 -1.03416,-0.212082 -1.17203,-0.598567 0,0 2.44304,-0.364489 3.68222,-2.283708 0,0 -0.98567,-0.0173 -1.17682,-0.291395 0,0 1.46337,-0.03749 3.00734,-2.364745 0,0 -0.88251,0.0082 -1.13191,-0.313826 0,0 1.67232,-0.682374 2.47838,-2.479124 0,0 -0.86723,0.07183 -1.18363,0.01354 0,0 2.53527,-2.442336 2.61083,-4.149674 0,0 -0.97727,0.316745 -1.28836,0.179007 0,0 1.87943,-2.504039 1.66038,-4.557465 0,0 -0.51613,0.671957 -1.19052,0.466736 0,0 1.54724,-2.079878 0.91332,-4.467675 0,0 -0.61187,0.613085 -1.12503,0.358027 0,0 1.04806,-1.770691 0.0772,-4.466598 0,0 -0.33107,0.768337 -0.97874,0.828233 0,0 0.4101,-2.74048 -0.96045,-4.445403 0,0 -0.0692,0.742192 -0.73519,0.667681 -0.0857,-0.109452 -0.28568,-2.546604 -2.06338,-4.21519 0,0 0.0342,0.354643 -0.34933,0.703716 0,0 -1.34187,-2.624958 -3.51491,-4.136948 0,0 0.25359,0.200819 -0.0607,0.796904 0,0 -4.53217,-3.492167 -10.28205,-4.161445 l -1.24938,4.865047 -9.41059,4.69011 c 1.04693,1.968832 6.06475,3.735739 5.69438,6.090402 l -0.91512,-0.325476 c 0,0 4.0651,5.062533 3.5501,6.148654 l -0.99352,-0.160146 c 0,0 1.29757,3.442638 0.075,5.67421 l 2.42156,5.833737 0.91307,4.653174 2.27425,2.362774 z"
         id="path340"
         sodipodi:nodetypes="ccccccccccccccccccccccccccccccccccccc" /><path
         d="m 287.64882,39.713856 c 0,0 -0.81378,-2.76378 -5.3658,-2.749586 0,0 5.85008,-3.037925 9.14232,0.998582 0,0 -0.41098,-3.649328 -4.83925,-4.931724 0,0 5.64581,-1.439828 8.02361,3.910342 0,0 0.62125,-4.571149 -2.68437,-6.808995 0,0 6.27208,0.263454 6.74487,5.912787"
         style="fill:none;fill-opacity:1;stroke:#550000;stroke-width:0.331489;stroke-linecap:round;stroke-linejoin:round;stroke-dasharray:none;stroke-opacity:1"
         id="path344"
         sodipodi:nodetypes="ccccccc" /><path
         style="fill:#550000;fill-opacity:1;stroke:#ffffff;stroke-width:0.422978;stroke-linecap:round;stroke-linejoin:round;stroke-miterlimit:13.6;stroke-dasharray:none;stroke-opacity:1;paint-order:fill markers stroke"
         d="m 278.41845,25.109105 c 0,0 -4.24288,-0.493742 -5.69293,0.800975 0,0 0.94988,0.302392 1.29083,0.647508 0,0 -3.07822,0.302535 -4.1808,1.660516 0,0 1.03416,0.212089 1.17203,0.598571 0,0 -2.44304,0.364485 -3.68221,2.283713 0,0 0.98566,0.01728 1.17681,0.291393 0,0 -1.46337,0.03748 -3.00734,2.364739 0,0 0.88251,-0.0082 1.13191,0.313827 0,0 -1.67232,0.682373 -2.47838,2.479124 0,0 0.86723,-0.07183 1.18363,-0.01354 0,0 -2.53526,2.442336 -2.61083,4.149674 0,0 0.97727,-0.316746 1.28836,-0.179008 0,0 -1.87943,2.504039 -1.66038,4.557465 0,0 0.51613,-0.671957 1.19053,-0.466735 0,0 -1.54725,2.079877 -0.91332,4.467675 0,0 0.61186,-0.613086 1.12502,-0.358028 0,0 -1.04806,1.770692 -0.0772,4.466599 0,0 0.33107,-0.768338 0.97874,-0.828234 0,0 -0.4101,2.740481 0.96045,4.445404 0,0 0.0691,-0.742192 0.73519,-0.667682 0.0857,0.109452 0.28568,2.546599 2.06338,4.215191 0,0 -0.0341,-0.354651 0.34933,-0.703722 0,0 1.34187,2.624957 3.51491,4.136954 0,0 -0.25359,-0.200815 0.0607,-0.796913 0,0 4.53217,3.492177 10.28205,4.161454 l 1.24939,-4.865053 9.41058,-4.690103 c -1.04693,-1.968834 -6.06475,-3.735741 -5.69438,-6.090404 l 0.91512,0.325475 c 0,0 -4.0651,-5.062533 -3.5501,-6.148654 l 0.99352,0.160147 c 0,0 -1.29757,-3.442639 -0.075,-5.67421 l -2.42157,-5.833738 -0.91306,-4.653169 -2.27425,-2.362774 z"
         id="path345"
         sodipodi:nodetypes="ccccccccccccccccccccccccccccccccccccc" /><path
         style="fill:#550000;fill-opacity:1;stroke:none;stroke-width:0.228544;stroke-linecap:round;stroke-linejoin:round;stroke-dasharray:none;stroke-opacity:1"
         d="m 276.21199,42.079027 c 0,0 -2.78526,-2.842212 0.3482,-9.480867 0,0 -2.2706,1.605652 -4.63843,4.744521 0,0 -1.23977,-4.403199 3.5688,-8.337386 0,0 -2.27137,-0.346573 -3.9282,0.531394 0,0 1.67063,-2.842931 7.08105,-5.200878 l -2.0355,-0.201462 c 0,0 13.04068,-6.608194 21.60617,6.105027 0,0 7.22872,3.56217 0.66111,10.226807 0,0 0.69534,-1.005999 -0.006,-3.47872 0,0 -5.4997,-3.497211 -8.77501,-1.084683 0,0 -4.28686,1.477273 -0.26742,8.828329 0,0 -2.85388,-0.745019 -3.7649,-3.749 0,0 -0.4107,-0.07941 0.58988,3.77783 0,0 -3.79649,-1.090467 -4.26936,-5.033232 0,0 -0.72722,0.568227 -0.76824,4.403122 0,0 -3.28574,-0.890998 -2.19582,-7.81989 z"
         id="path346"
         sodipodi:nodetypes="cccccccccccccccccc" /><path
         d="m 277.75017,42.106073 c 0,0 -1.6709,2.34708 1.15189,5.918227 0,0 -6.00255,-2.724339 -4.86158,-7.806675 0,0 -2.61614,2.577276 -0.8895,6.851941 0,0 -4.61956,-3.550768 -1.88065,-8.72539 0,0 -3.97865,2.33486 -3.69681,6.316769 0,0 -3.66686,-5.095323 0.484,-8.956558"
         style="fill:none;fill-opacity:1;stroke:#ffffff;stroke-width:0.331489;stroke-linecap:round;stroke-linejoin:round;stroke-dasharray:none;stroke-opacity:1"
         id="path347"
         sodipodi:nodetypes="ccccccc" /><path
         style="fill:#ffffff;fill-opacity:1;stroke:none;stroke-width:0.109589;stroke-linecap:round;stroke-linejoin:round;stroke-opacity:1"
         d="m 279.61382,23.858326 c 0,0 11.45738,-3.02161 16.80983,5.712773 0,0 -2.34819,-1.585196 -2.92535,-1.7937 0,0 1.92724,2.321823 1.30685,2.548838 0,0 -2.8925,-2.775067 -7.79504,-3.509437 0,0 -3.37498,0.214546 -5.6561,-0.06702 0,0 -0.82147,0.798048 4.33383,0.925275 0,0 0.75605,3.181349 3.66039,3.277409 0,0 1.00748,0.64985 -0.0974,0.979954 0,0 -1.51893,-0.205862 -2.59099,0.347386 0,0 0.005,-0.05442 1.29864,0.486348 0,0 -4.83872,1.113725 -6.93737,5.083599 0,0 4.40822,-5.912091 11.69607,-3.731299 0,0 -8.43436,1.058963 -4.19909,9.341508 0,0 -3.27578,-2.167157 -1.89878,-6.621026 0,0 -2.27465,2.202234 -1.00863,6.653373 0,0 -4.2011,-2.62718 -0.90781,-7.008666 0,0 -3.83318,0.656088 -3.86936,6.000435 0,0 -2.8946,-3.935561 1.49362,-9.480142 0,0 -4.66119,2.093498 -6.14909,7.663405 0,0 -2.04247,-5.728164 4.72891,-10.80076 0,0 -5.87836,1.340325 -8.62976,6.07003 0,0 0.78129,-8.141611 9.30087,-7.845146 0,0 -2.78879,-1.271905 -7.37853,-0.02181 0,0 2.47246,-2.366945 4.85085,-2.716602 l 5.79775,0.259369 c 0,0 -2.3972,-1.744335 -5.23435,-1.754091 z"
         id="path348"
         sodipodi:nodetypes="ccccccccccccccccccccccccccc" /><path
         style="fill:#ffffff;fill-opacity:1;stroke-width:0.109589;stroke-linecap:round;stroke-linejoin:round"
         d="m 288.42815,28.038254 2.81005,0.901135 c 0,0 -2.36944,1.086413 -2.81005,-0.901135 z"
         id="path420" /><path
         style="fill:#ffffff;fill-opacity:1;stroke:none;stroke-width:0.109589;stroke-linecap:round;stroke-linejoin:round;stroke-opacity:1"
         d="m 297.53916,30.267916 c 0,0 -2.2463,0.890193 -2.30379,2.437594 0,0 0.16508,0.552438 -0.35579,1.091703 0,0 -1.10017,-0.514769 -2.58405,-0.956578 -1.40736,-0.419006 -3.15985,-0.772421 -4.64625,-0.558775 0,0 4.4926,0.295072 9.64694,3.061136 0,0 0.3224,-0.201633 -0.65508,-0.73855 0,0 -0.99241,-0.387207 -0.79977,-1.357691 0,0 2.15601,-0.811498 2.52965,-2.497597"
         id="path424"
         sodipodi:nodetypes="cccsccccc" /><path
         style="fill:#550000;fill-opacity:1;stroke:none;stroke-width:0.275007;stroke-linecap:round;stroke-linejoin:round;stroke-dasharray:none;stroke-opacity:1"
         d="m 295.81787,32.653429 c 0,0 0.77312,-1.833679 1.58604,-1.161917 0,0 -0.0441,1.136407 -1.58604,1.161917 z"
         id="path425" /><ellipse
         style="fill:#550000;fill-opacity:1;stroke:none;stroke-width:0.340247;stroke-linecap:round;stroke-linejoin:round;stroke-dasharray:none;stroke-opacity:1"
         id="ellipse425"
         cx="291.39615"
         cy="-0.22350696"
         rx="0.65571707"
         ry="0.46111712"
         transform="rotate(5.6726205)" /><path
         d="m 281.26218,49.763003 c 0,0 0.81378,2.763779 5.3658,2.749585 0,0 -5.85008,3.037925 -9.14232,-0.998582 0,0 0.41098,3.649328 4.83925,4.931724 0,0 -5.64581,1.439833 -8.02361,-3.910341 0,0 -0.62125,4.571152 2.68436,6.808991 0,0 -6.27207,-0.263449 -6.74486,-5.912783"
         style="fill:none;fill-opacity:1;stroke:#ffffff;stroke-width:0.331489;stroke-linecap:round;stroke-linejoin:round;stroke-dasharray:none;stroke-opacity:1"
         id="path426"
         sodipodi:nodetypes="ccccccc" /><path
         style="fill:none;fill-opacity:1;stroke:#ffffff;stroke-width:0.264909;stroke-linecap:round;stroke-linejoin:round;stroke-miterlimit:13.6;stroke-dasharray:none;stroke-opacity:1;paint-order:fill markers stroke"
         d="m 264.92164,47.284131 c 0,0 0.12434,3.071089 0.74608,4.070162"
         id="path427" /><path
         style="fill:none;fill-opacity:1;stroke:#ffffff;stroke-width:0.264909;stroke-linecap:round;stroke-linejoin:round;stroke-miterlimit:13.6;stroke-dasharray:none;stroke-opacity:1;paint-order:fill markers stroke"
         d="m 265.90929,49.202994 c 0,0 0,1.836462 0.58029,2.499629"
         id="path428" /><path
         style="fill:#550000;fill-opacity:1;stroke:none;stroke-width:0.00811548;stroke-linecap:round;stroke-linejoin:round;stroke-miterlimit:13.6;stroke-dasharray:none;stroke-opacity:1;paint-order:fill markers stroke"
         d="m 288.42814,28.038254 2.81006,0.901135 -0.30529,-0.822416 -1.15992,-0.358443 z"
         id="path429" /><path
         style="fill:#550000;fill-opacity:1;stroke:#f9f9f9;stroke-width:0.228544;stroke-linecap:round;stroke-linejoin:round;stroke-dasharray:none;stroke-opacity:1"
         d="m 292.69901,47.397832 c 0,0 3.10595,2.414631 -0.0275,9.053286 0,0 1.94991,-1.178072 4.31774,-4.31694 0,0 1.23977,4.403198 -3.5688,8.337388 0,0 2.27137,0.346574 3.9282,-0.531389 0,0 -1.67062,2.842921 -7.08105,5.20087 l 2.0355,0.201459 c 0,0 -13.04068,6.608199 -21.60617,-6.105022 0,0 -7.22872,-3.562171 -0.66111,-10.226808 0,0 -0.69534,1.005998 0.006,3.478719 0,0 5.4997,3.497212 8.77501,1.084683 0,0 4.28686,-1.477273 0.26743,-8.828329 0,0 2.85387,0.745019 3.76489,3.749 0,0 0.41071,0.07941 -0.58987,-3.77783 0,0 3.55597,1.384429 4.9909,5.08668 0,0 0.006,-0.621675 0.0467,-4.456569 0,0 3.28573,0.890997 2.19582,7.81989 z"
         id="path430"
         sodipodi:nodetypes="cccccccccccccccccc" /><path
         style="fill:#ffffff;fill-opacity:1;stroke:none;stroke-width:0.109589;stroke-linecap:round;stroke-linejoin:round;stroke-opacity:1"
         d="m 289.29718,65.618539 c 0,0 -11.45737,3.021606 -16.80983,-5.712785 0,0 2.34819,1.585196 2.92535,1.793709 0,0 -1.92724,-2.321829 -1.30685,-2.548845 0,0 2.8925,2.775068 7.79504,3.509435 0,0 3.37498,-0.214539 5.6561,0.06703 0,0 0.82147,-0.798054 -4.33383,-0.925282 0,0 -0.75605,-3.181349 -3.66039,-3.27741 0,0 -1.00748,-0.649846 0.0974,-0.979947 0,0 1.51894,0.205851 2.59099,-0.347396 0,0 -0.005,0.05443 -1.29864,-0.486343 0,0 4.83872,-1.113725 6.93737,-5.083599 0,0 -4.40822,5.91209 -11.69607,3.731299 0,0 8.43436,-1.058963 4.19909,-9.341507 0,0 3.27578,2.167156 1.89878,6.621025 0,0 2.27465,-2.202234 1.00863,-6.653373 0,0 4.2011,2.62718 0.90781,7.008666 0,0 3.83318,-0.656087 3.86936,-6.000435 0,0 2.8946,3.935561 -1.49362,9.480143 0,0 4.66119,-2.093498 6.14909,-7.663406 0,0 2.04247,5.728164 -4.72892,10.800758 0,0 5.87837,-1.340328 8.62977,-6.070028 0,0 -0.78129,8.141616 -9.30087,7.845142 0,0 2.7888,1.271905 7.37853,0.02182 0,0 -2.47246,2.366948 -4.85085,2.716611 l -5.79775,-0.259374 c 0,0 2.3972,1.744326 5.23435,1.754092 z"
         id="path431"
         sodipodi:nodetypes="ccccccccccccccccccccccccccc" /><path
         style="fill:#ffffff;fill-opacity:1;stroke-width:0.109589;stroke-linecap:round;stroke-linejoin:round"
         d="m 280.48285,61.438599 -2.81005,-0.901137 c 0,0 2.36944,-1.086408 2.81005,0.901137 z"
         id="path432" /><path
         style="fill:#ffffff;fill-opacity:1;stroke:none;stroke-width:0.109589;stroke-linecap:round;stroke-linejoin:round;stroke-opacity:1"
         d="m 271.37184,59.208946 c 0,0 2.2463,-0.890197 2.30379,-2.437597 0,0 -0.16508,-0.552439 0.35579,-1.091704 0,0 1.10017,0.51477 2.58405,0.956578 1.40736,0.419012 3.15985,0.772416 4.64626,0.558781 0,0 -4.49261,-0.295078 -9.64695,-3.061141 0,0 -0.3224,0.201633 0.65508,0.73855 0,0 0.99241,0.387207 0.79978,1.357691 0,0 -2.15602,0.811495 -2.52966,2.497604"
         id="path433"
         sodipodi:nodetypes="cccsccccc" /><path
         style="fill:#550000;fill-opacity:1;stroke:none;stroke-width:0.275007;stroke-linecap:round;stroke-linejoin:round;stroke-dasharray:none;stroke-opacity:1"
         d="m 273.09313,56.82343 c 0,0 -0.77312,1.833678 -1.58604,1.161922 0,0 0.0441,-1.136413 1.58604,-1.161922 z"
         id="path434" /><ellipse
         style="fill:#550000;fill-opacity:1;stroke:none;stroke-width:0.340247;stroke-linecap:round;stroke-linejoin:round;stroke-dasharray:none;stroke-opacity:1"
         id="ellipse434"
         cx="-283.57312"
         cy="-33.028633"
         rx="0.65571707"
         ry="0.46111712"
         transform="rotate(-174.32738)" /><path
         style="fill:#1a1a1a;fill-opacity:1;stroke:#550000;stroke-width:0.264909;stroke-linecap:round;stroke-linejoin:round;stroke-miterlimit:13.6;stroke-dasharray:none;stroke-opacity:1;paint-order:fill markers stroke"
         d="m 303.98936,42.192727 c 0,0 -0.12434,-3.071088 -0.74608,-4.070161"
         id="path435" /><path
         style="fill:#1a1a1a;fill-opacity:1;stroke:#550000;stroke-width:0.264909;stroke-linecap:round;stroke-linejoin:round;stroke-miterlimit:13.6;stroke-dasharray:none;stroke-opacity:1;paint-order:fill markers stroke"
         d="m 303.00171,40.273864 c 0,0 0,-1.836461 -0.58029,-2.499629"
         id="path436" /><path
         style="fill:#550000;fill-opacity:1;stroke:none;stroke-width:0.00811548;stroke-linecap:round;stroke-linejoin:round;stroke-miterlimit:13.6;stroke-dasharray:none;stroke-opacity:1;paint-order:fill markers stroke"
         d="m 280.48286,61.438599 -2.81006,-0.901137 0.30529,0.822421 1.15992,0.358446 z"
         id="path437" /><path
         d="m 291.30468,47.278581 c 0,0 1.6709,-2.347078 -1.15189,-5.918225 0,0 6.00255,2.724338 4.86159,7.806674 0,0 2.61613,-2.577275 0.88949,-6.85194 0,0 4.61956,3.550766 1.88065,8.725388 0,0 3.97865,-2.334859 3.69681,-6.316768 0,0 3.66687,5.095324 -0.484,8.956558"
         style="fill:none;fill-opacity:1;stroke:#550000;stroke-width:0.331489;stroke-linecap:round;stroke-linejoin:round;stroke-dasharray:none;stroke-opacity:1"
         id="path438"
         sodipodi:nodetypes="ccccccc" /><path
         style="font-size:8.46667px;font-family:Holborn;-inkscape-font-specification:Holborn;text-align:center;letter-spacing:0.264583px;text-anchor:middle;fill:#f9f9f9;stroke-width:0.221514;stroke-linecap:round;stroke-linejoin:round;stroke-miterlimit:13.6;stroke-opacity:0.460695;paint-order:fill markers stroke"
         d="m 255.84079,38.644618 2.55578,-0.0147 -0.15985,0.90891 z m 5.28068,-1.03992 -0.8839,-0.15545 -0.0455,0.2585 -4.19294,0.0363 0.0499,-0.28351 -0.89224,-0.15692 -0.41795,2.37653 0.89224,0.15691 0.0499,-0.28351 3.92896,1.46468 -0.044,0.25016 0.8839,0.15545 0.25664,-1.45927 -0.8839,-0.15546 -0.0528,0.3002 -0.67012,-0.2468 0.21851,-1.24247 0.71411,-0.003 -0.0528,0.30019 0.8839,0.15546 z m -0.66472,-0.89486 0.84278,0.30848 1.199,-3.27573 -1.12106,-0.41034 -0.30848,0.84279 0.27828,0.10185 -0.48019,1.31189 -3.87204,-1.41727 0.099,-0.27033 -0.85073,-0.31139 -0.50929,1.39139 0.85074,0.31139 0.099,-0.27032 3.87204,1.41726 z m 1.52637,-3.96678 0.77809,0.44724 1.73833,-3.02427 -1.035,-0.59491 -0.44724,0.77809 0.25691,0.14767 -0.69617,1.21118 -1.00565,-0.57804 0.36708,-0.63862 0.25691,0.14767 0.45146,-0.78543 -1.29192,-0.74259 -0.45146,0.78543 0.25692,0.14768 -0.36708,0.63862 -1.79107,-1.0295 0.69618,-1.21118 0.25692,0.14767 0.44724,-0.77808 -1.04235,-0.59914 -1.73833,3.02427 0.78543,0.45146 0.14345,-0.24958 3.5748,2.05478 z m 2.42414,-3.53136 0.90046,-0.0803 c 0.40951,-0.49634 0.81902,-0.99268 1.22853,-1.48901 l -0.0122,-0.065 -0.08,-0.83433 -0.20245,-0.16704 c -1.05798,-0.8729 0.1698,0.1401 -0.89471,-0.73819 l -0.20246,-0.16704 -0.90045,0.0803 -0.98606,1.19513 -0.14842,0.0202 -1.4237,-1.17465 -0.0149,-0.15494 0.74898,-0.90778 0.15495,-0.0148 0.80981,0.66815 0.57116,-0.69226 -1.09717,-0.90524 -0.83433,0.08 -0.0661,3.2e-4 c -0.40951,0.49634 -0.81902,0.99268 -1.22853,1.48901 l 0.0922,0.89932 1.99841,1.64882 0.89393,-0.0857 0.98606,-1.19512 0.15494,-0.0149 c 1.00574,0.8298 -0.28082,-0.23169 0.72492,0.59811 l 0.0148,0.15494 -0.74898,0.90778 -0.15494,0.0148 -0.11103,-0.0916 -0.57116,0.69226 0.39838,0.32869 z m 2.64733,-3.09635 0.90142,0.0687 c 0.48547,-0.42234 0.97094,-0.84468 1.4564,-1.26702 l -0.001,-0.0661 0.0581,-0.83614 -0.17227,-0.19802 c -0.90024,-1.03481 0.14449,0.16608 -0.76132,-0.87512 l -0.17227,-0.19802 -0.90142,-0.0687 -1.16895,1.01695 -0.14973,-0.004 -1.21145,-1.39253 0.0108,-0.15528 0.8879,-0.77243 0.15528,0.0108 0.68908,0.79208 0.6771,-0.58905 -0.93359,-1.07314 -0.83614,-0.0581 -0.0653,-0.0105 c -0.48547,0.42233 -0.97093,0.84467 -1.4564,1.26701 l -0.0567,0.90225 1.70047,1.95465 0.89586,0.0623 1.16896,-1.01695 0.15528,0.0108 c 0.85579,0.98371 -0.23896,-0.27467 0.61684,0.70904 l -0.0108,0.15528 -0.8879,0.77244 -0.15528,-0.0108 -0.0945,-0.10859 -0.6771,0.58905 0.33898,0.38965 z m 2.94211,-2.76489 0.4982,0.74649 1.23241,-0.8225 -0.49821,-0.74649 -0.23943,0.1598 -2.28892,-3.42961 0.23944,-0.1598 -0.5029,-0.75353 -1.2324,0.8225 0.5029,0.75353 0.23944,-0.1598 2.28891,3.42961 z m 2.74034,-1.8176 -1.72782,-3.49987 0.05,-0.14742 1.05528,-0.52097 0.14742,0.05 c 0.57719,1.16915 1.15063,2.33072 1.72782,3.49987 l -0.05,0.14742 -1.05528,0.52097 z m -0.63983,0.73133 0.85424,0.29589 c 0.57698,-0.28485 1.15397,-0.5697 1.72336,-0.8508 l 0.29214,-0.86183 c -0.60717,-1.22989 -1.33053,-2.69513 -1.94145,-3.93261 l -0.11619,-0.23535 -0.79379,-0.26907 -0.068,-0.0231 c -0.56939,0.2811 -1.14638,0.56595 -1.72336,0.85079 l -0.28455,0.85809 z m 7.97067,-3.13899 -1.15337,0.23396 -0.12975,-0.086 -0.77594,-3.82523 0.086,-0.12975 1.15338,-0.23396 0.12975,0.086 c 0.2592,1.27785 0.51673,2.54739 0.77593,3.82523 z m -2.08862,0.69149 0.75025,0.50438 1.26124,-0.25584 0.65957,0.73876 0.67417,-0.59463 -0.50636,-0.57977 0.29765,-0.44914 c -0.27267,-1.34422 -0.59752,-2.94567 -0.87187,-4.2982 l -0.0522,-0.25722 -0.75855,-0.50271 c -0.62232,0.12624 -1.25295,0.25416 -1.88357,0.38208 l -0.49441,0.75686 z m 4.26576,-0.7633 0.65106,0.62721 c 0.64326,-0.0163 1.28653,-0.0325 1.92979,-0.0488 l 0.041,-0.0519 0.57749,-0.60745 -0.11085,-4.38434 0.29624,-0.007 -0.0229,-0.90564 -1.48966,0.0377 0.0229,0.90565 0.29624,-0.007 0.10144,4.01192 -0.10725,0.11281 -1.17649,0.0297 -0.11282,-0.10724 -0.10143,-4.01192 0.28777,-0.007 -0.0229,-0.90564 -1.48119,0.0375 0.0229,0.90564 0.28777,-0.007 z m 6.69914,-4.08523 0.0751,2.55473 -0.91244,-0.13833 z m 1.16442,5.25463 0.13452,-0.88732 -0.2595,-0.0394 -0.13537,-4.1909 0.28462,0.0432 0.13579,-0.8957 -2.38574,-0.36168 -0.13579,0.8957 0.28461,0.0431 -1.37142,3.96247 -0.25113,-0.0381 -0.13452,0.88733 1.46493,0.22208 0.13452,-0.88733 -0.30136,-0.0457 0.2309,-0.67576 1.24728,0.18909 0.0202,0.71383 -0.30136,-0.0457 -0.13452,0.88733 z m 1.61733,-0.40808 -0.28743,0.8502 1.41164,0.47724 0.28743,-0.85019 -0.2727,-0.0922 1.32055,-3.90608 0.50531,0.17083 -0.0949,0.28073 0.85821,0.29014 0.38505,-1.13894 -3.58525,-1.21209 -0.38505,1.13894 0.85019,0.28743 0.0949,-0.28073 0.51333,0.17355 -1.32056,3.90608 z m 4.14128,1.68061 -0.43456,0.78525 1.30381,0.72152 0.43455,-0.78525 -0.25187,-0.13938 1.99648,-3.60769 0.4667,0.25827 -0.14348,0.25928 0.79265,0.43866 0.58214,-1.05194 -3.31137,-1.8325 -0.58213,1.05194 0.78524,0.43455 0.14349,-0.25928 0.47411,0.26237 -1.99648,3.60769 z m 5.2502,0.79743 1.17059,-1.42704 0.15491,-0.0153 0.9099,0.74639 0.0153,0.15491 c -0.82694,1.00809 -0.34366,0.41894 -1.1706,1.42704 l -0.1549,0.0153 -0.9099,-0.74639 z m -2.29764,0.91866 -0.56919,0.69388 1.14556,0.9397 0.56919,-0.69389 -0.22257,-0.18256 0.73565,-0.89681 c 0.29457,0.24163 0.58915,0.48327 0.89026,0.73028 l 0.0341,0.34555 -0.57992,0.70698 -0.22911,-0.18794 -0.56919,0.69388 1.1521,0.94507 0.56919,-0.69389 -0.22257,-0.18257 0.6927,-0.84444 -0.0689,-0.6369 0.63808,-0.057 c 0.87526,-1.06701 0.48327,-0.58914 1.35316,-1.6496 l 0.16646,-0.20293 -0.0894,-0.9056 -2.20602,-1.80959 -0.57455,0.70043 0.22256,0.18257 -2.61504,3.18793 z m 4.21456,3.65881 2.96758,-2.53534 0.15518,0.0122 0.76445,0.89478 -0.0122,0.15518 c -0.99134,0.84695 -1.97624,1.68839 -2.96758,2.53534 l -0.15518,-0.0122 -0.76445,-0.89478 z m -0.8662,-0.44037 -0.0768,0.90077 c 0.41797,0.48923 0.83594,0.97846 1.24841,1.46126 l 0.90721,0.0713 c 1.04284,-0.89094 2.28523,-1.95237 3.33451,-2.84882 l 0.19955,-0.17048 0.0656,-0.83559 0.006,-0.0716 c -0.41247,-0.4828 -0.83045,-0.97203 -1.24842,-1.46126 l -0.9017,-0.0648 z m 3.38512,3.94062 -0.77328,0.4555 0.75631,1.28394 0.77328,-0.45551 -0.1461,-0.24803 3.55271,-2.09275 0.27072,0.45959 -0.25533,0.15041 0.45981,0.78057 1.0359,-0.6102 -1.92086,-3.26091 -1.0359,0.6102 0.4555,0.77328 0.25533,-0.1504 0.27502,0.46689 -3.55271,2.09274 z m 2.03537,3.97892 -0.84216,0.31018 0.51502,1.39831 0.84216,-0.31019 -0.0995,-0.27012 3.86917,-1.42509 0.18435,0.50053 -0.27807,0.10242 0.31311,0.8501 1.12818,-0.41552 -1.30804,-3.55138 -1.12817,0.41553 0.31018,0.84216 0.27807,-0.10242 0.18728,0.50848 -3.86917,1.42508 z m 1.38487,4.1885 3.84131,-0.69195 0.12783,0.0888 0.20864,1.15822 -0.0888,0.12784 c -1.28322,0.23115 -2.5581,0.4608 -3.84131,0.69195 l -0.12784,-0.0888 -0.20863,-1.15822 z m -0.52574,-0.81721 -0.5207,0.73902 c 0.11407,0.63327 0.22815,1.26655 0.34072,1.89149 l 0.74735,0.5192 c 1.34987,-0.24316 2.95806,-0.53285 4.31627,-0.77751 l 0.25831,-0.0465 0.47821,-0.68835 0.041,-0.059 c -0.11258,-0.62494 -0.22665,-1.25821 -0.34073,-1.89149 l -0.74584,-0.51087 z"
         id="path439"
         inkscape:transform-center-x="0.037670036"
         inkscape:transform-center-y="-16.123333"
         aria-label="alessio quattrotto" /><path
         style="font-size:8.46667px;font-family:Holborn;-inkscape-font-specification:Holborn;text-align:center;letter-spacing:0.264583px;text-anchor:middle;fill:#f9f9f9;stroke-width:0.221514;stroke-linecap:round;stroke-linejoin:round;stroke-miterlimit:13.6;stroke-opacity:0.460695;paint-order:fill markers stroke"
         d="m 261.41846,59.408339 1.55359,-0.99653 0.15207,0.0332 0.63541,0.9906 -0.0332,0.15207 c -1.0975,0.70397 -0.45611,0.29256 -1.5536,0.99653 l -0.15207,-0.0332 -0.6354,-0.9906 z m -2.46896,0.16539 -0.75541,0.48455 0.79996,1.24715 0.75542,-0.48455 -0.15542,-0.2423 0.97634,-0.62626 0.89596,1.39681 0.88191,0.19878 c 1.15451,-0.74054 0.80531,-0.51655 1.95981,-1.25709 l 0.22093,-0.14171 0.19421,-0.88904 -1.54051,-2.40166 -0.76255,0.48913 0.15542,0.2423 -3.47064,2.22619 z m 2.19053,3.34496 -0.68227,0.58305 2.26621,2.65185 0.90755,-0.77557 -0.58305,-0.68227 -0.22528,0.19252 -0.90759,-1.06203 0.88181,-0.75357 0.47854,0.55998 -0.22528,0.19252 0.58856,0.6887 1.13283,-0.96808 -0.58856,-0.68871 -0.22528,0.19251 -0.47854,-0.55997 1.57051,-1.34213 0.90759,1.06203 -0.22528,0.19252 0.58305,0.68227 0.91399,-0.78107 -2.26621,-2.65185 -0.68871,0.58855 0.18702,0.21884 -3.13459,2.67875 z m 4.94542,2.18077 1.2197,-1.3853 0.15535,-0.01 0.88329,0.7777 0.01,0.15535 c -0.86163,0.97861 -0.35808,0.40669 -1.2197,1.3853 l -0.15535,0.01 -0.88329,-0.7777 z m -2.32831,0.83789 -0.59306,0.67359 1.11205,0.97912 0.59307,-0.67359 -0.21606,-0.19023 0.76651,-0.87058 c 0.28596,0.25177 0.57192,0.50355 0.86423,0.76091 l 0.022,0.34654 -0.60426,0.6863 -0.22241,-0.19583 -0.59306,0.67359 1.11841,0.98472 0.59306,-0.67359 -0.21605,-0.19023 0.72175,-0.81974 -0.0466,-0.63893 0.63968,-0.0347 c 0.91198,-1.0358 0.50354,-0.57192 1.40993,-1.60136 l 0.17344,-0.19699 -0.0577,-0.90817 -2.1415,-1.8855 -0.59866,0.67994 0.21606,0.19023 -2.72475,3.09469 z m 3.14758,3.03793 0.17612,0.88672 c 0.53728,0.35409 1.07456,0.70818 1.61184,1.06227 l 0.0633,-0.0191 0.821,-0.16873 0.14443,-0.21915 c 0.75477,-1.14526 -0.12114,0.1838 0.6383,-0.96852 l 0.14443,-0.21915 -0.17612,-0.88671 -1.29371,-0.85262 -0.036,-0.1454 1.01568,-1.54114 0.15247,-0.0313 0.98266,0.64762 0.0313,0.15247 -0.57773,0.87661 0.74936,0.49386 0.78273,-1.18767 -0.16873,-0.821 -0.007,-0.0657 c -0.53728,-0.35409 -1.07456,-0.70818 -1.61184,-1.06227 l -0.8843,0.18785 -1.42568,2.16325 0.18078,0.87965 1.29371,0.85261 0.0313,0.15247 c -0.7175,1.0887 0.20034,-0.30399 -0.51716,0.78471 l -0.15247,0.0313 -0.98266,-0.64762 -0.0313,-0.15247 0.0792,-0.12018 -0.74936,-0.49386 -0.2842,0.43123 z m 4.28862,2.18213 1.69417,-3.51629 0.14693,-0.0514 1.06022,0.51082 0.0514,0.14694 c -0.56594,1.17463 -1.12822,2.34164 -1.69416,3.51628 l -0.14694,0.0514 -1.06022,-0.51082 z m -0.97022,-0.0539 0.29277,0.85531 c 0.57969,0.2793 1.15938,0.558601 1.73144,0.834231 l 0.85899,-0.3004 c 0.59535,-1.235651 1.30462,-2.707761 1.90365,-3.951051 l 0.11392,-0.23645 -0.27668,-0.79118 -0.0237,-0.0678 c -0.57206,-0.27563 -1.15175,-0.55492 -1.73144,-0.83422 l -0.85137,0.30406 z m 5.12241,-2.42769 -1.24592,3.930531 -0.27441,-0.087 -0.27119,0.85552 1.41241,0.44771 0.27119,-0.85551 -0.27441,-0.087 0.88519,-2.792531 0.4465,3.214661 -0.28248,-0.0895 -0.27119,0.85551 1.42048,0.45028 0.27119,-0.85552 -0.27441,-0.087 1.24592,-3.930531 0.27441,0.087 0.27375,-0.86359 -1.42048,-0.45027 -0.27374,0.86359 0.28248,0.0895 -0.61145,1.92894 -0.4465,-3.21466 -1.138,-0.36073 -0.27374,0.86359 z m 5.12096,1.33884 0.0518,2.555301 -0.91114,-0.14667 z m 1.11631,5.265051 0.14263,-0.88606 -0.25913,-0.0417 -0.097,-4.191961 0.28421,0.0457 0.14397,-0.89442 -2.38233,-0.38349 -0.14398,0.89442 0.28421,0.0457 -1.4076,3.949761 -0.25077,-0.0404 -0.14263,0.88606 1.46283,0.23547 0.14263,-0.88606 -0.30092,-0.0484 0.23706,-0.67362 1.2455,0.20049 0.0137,0.71398 -0.30092,-0.0484 -0.14263,0.88607 z m 0.62479,-0.85892 -0.0165,0.89731 3.48768,0.0643 0.022,-1.1936 -0.89732,-0.0165 -0.006,0.29628 -1.39676,-0.0257 0.076,-4.122571 0.28782,0.005 0.0167,-0.90578 -1.48142,-0.0273 -0.0167,0.90578 0.28782,0.005 -0.076,4.122561 z m 7.07614,-0.35566 0.17115,0.881 1.46279,-0.28417 -0.17115,-0.881 -0.28258,0.0549 -0.78632,-4.047601 0.52361,-0.10172 0.0565,0.2909 0.88931,-0.17277 -0.22928,-1.1802 -3.71514,0.72173 0.22927,1.1802 0.881,-0.17114 -0.0565,-0.2909 0.53192,-0.10334 0.78632,4.047601 z m 3.46588,-3.070411 -0.61003,-1.74201 0.0675,-0.14026 1.11073,-0.38896 0.14026,0.0675 c 0.43093,1.2306 0.17909,0.51142 0.61002,1.74202 l -0.0675,0.14025 -1.11073,0.38897 z m -0.41036,2.440221 0.29662,0.84704 1.3984,-0.4897 -0.29661,-0.84703 -0.27169,0.0951 -0.38337,-1.094751 c 0.35959,-0.12593 0.71918,-0.25185 1.08676,-0.38057 l 0.31289,0.15059 0.30221,0.863011 -0.27968,0.0979 0.29662,0.84703 1.40639,-0.49249 -0.29661,-0.847041 -0.27169,0.0951 -0.36098,-1.03083 -0.57982,-0.27241 0.2832,-0.57462 c -0.45612,-1.30251 -0.25184,-0.71918 -0.70516,-2.0137 l -0.0868,-0.24772 -0.81998,-0.39464 -2.69292,0.94302 0.29941,0.85503 0.27169,-0.0952 1.36276,3.891561 z m 3.76537,-5.971301 1.57347,2.01406 -0.81714,0.42889 z m 4.05012,3.5445 -0.41709,-0.79465 -0.2324,0.12198 -2.59098,-3.29679 0.25489,-0.13379 -0.42102,-0.80215 -2.13658,1.12143 0.42102,0.80215 0.25489,-0.13378 1.24156,4.00506 -0.2249,0.11804 0.41709,0.794661 1.31194,-0.688601 -0.4171,-0.79465 -0.26988,0.14165 -0.21414,-0.68125 1.11702,-0.5863 0.43904,0.56321 -0.26988,0.14166 0.41709,0.79465 z m -0.0142,-1.11051 0.50113,0.74452 1.22917,-0.82734 -0.50113,-0.74452 -0.23881,0.16074 -2.30237,-3.42059 0.23881,-0.16074 -0.50586,-0.75155 -1.22916,0.82734 0.50586,0.75154 0.23881,-0.16074 2.30236,3.4206 z m -0.71176,-4.46111 2.66419,3.14697 -0.21971,0.186 0.57989,0.68497 1.13084,-0.95736 -0.57989,-0.68497 -0.2197,0.186 -1.89284,-2.23583 2.95906,1.33318 -0.22617,0.19147 0.57989,0.68497 1.1373,-0.96283 -0.57989,-0.68497 -0.2197,0.186 -2.6642,-3.14696 0.21971,-0.18601 -0.58536,-0.69142 -1.1373,0.96282 0.58536,0.69143 0.22617,-0.19147 1.30747,1.54441 -2.95905,-1.33318 -0.91114,0.77135 0.58536,0.69143 z m 5.7233,0.48979 0.67133,0.59563 2.31506,-2.60931 -0.89299,-0.7923 -0.59562,0.67133 0.22166,0.19667 -0.92715,1.04499 -0.86766,-0.76981 0.48886,-0.551 0.22167,0.19667 0.60124,-0.67766 -1.11466,-0.98896 -0.60124,0.67766 0.22167,0.19667 -0.48886,0.55099 -1.54532,-1.37105 0.92715,-1.045 0.22166,0.19667 0.59562,-0.67132 -0.89932,-0.79791 -2.31506,2.6093 0.67766,0.60125 0.19105,-0.21533 3.0843,2.73649 z m 1.47986,-5.198 -1.53984,-1.01766 -0.0311,-0.15251 0.64887,-0.98182 0.15252,-0.0311 c 1.08777,0.7189 0.45206,0.29876 1.53984,1.01766 l 0.0311,0.15251 -0.64887,0.98182 z m 1.15004,2.191 0.74873,0.49483 0.81692,-1.23611 -0.74872,-0.49482 -0.15872,0.24015 -0.9677,-0.63954 c 0.21007,-0.31785 0.42014,-0.63571 0.63487,-0.96063 l 0.34022,-0.0695 0.76286,0.50416 -0.16339,0.24722 0.74873,0.49483 0.8216,-1.24318 -0.74873,-0.49482 -0.15872,0.24016 -0.91119,-0.6022 -0.62644,0.13402 -0.12229,-0.62884 c -1.15134,-0.76091 -0.63571,-0.42014 -1.77999,-1.17638 l -0.21897,-0.14471 -0.89161,0.18204 -1.57317,2.38039 0.75579,0.4995 0.15872,-0.24016 3.43992,2.2734 z"
         id="path440"
         inkscape:transform-center-x="0.049788101"
         inkscape:transform-center-y="20.860117"
         aria-label="personal trainer" /><circle
         style="fill:none;stroke:#ffffff;stroke-width:0.894364;stroke-linecap:round;stroke-linejoin:round;stroke-miterlimit:13.6;stroke-dasharray:none;stroke-opacity:0.998172;paint-order:fill markers stroke"
         id="circle440"
         transform="scale(-1,1)"
         r="33.170692"
         cy="44.731094"
         cx="-284.45551" /></g></g><style
     id="style1" /></svg>
