<?xml version="1.0" encoding="UTF-8" standalone="no"?>
<!-- Created with Inkscape (http://www.inkscape.org/) -->

<svg
   width="34.663605mm"
   height="36.755318mm"
   viewBox="0 0 34.663605 36.755318"
   version="1.1"
   id="svg1"
   xml:space="preserve"
   sodipodi:docname="Logo-project.svg"
   inkscape:version="1.3.2 (091e20e, 2023-11-25, custom)"
   xmlns:inkscape="http://www.inkscape.org/namespaces/inkscape"
   xmlns:sodipodi="http://sodipodi.sourceforge.net/DTD/sodipodi-0.dtd"
   xmlns="http://www.w3.org/2000/svg"
   xmlns:svg="http://www.w3.org/2000/svg"><sodipodi:namedview
     id="namedview1"
     pagecolor="#ffffff"
     bordercolor="#eeeeee"
     borderopacity="1"
     inkscape:showpageshadow="0"
     inkscape:pageopacity="0"
     inkscape:pagecheckerboard="0"
     inkscape:deskcolor="#505050"
     inkscape:document-units="mm"
     inkscape:zoom="1.4142136"
     inkscape:cx="1063.8422"
     inkscape:cy="2265.9237"
     inkscape:window-width="2520"
     inkscape:window-height="1591"
     inkscape:window-x="-9"
     inkscape:window-y="-9"
     inkscape:window-maximized="1"
     inkscape:current-layer="layer1" /><defs
     id="defs1" /><g
     inkscape:label="Layer 1"
     inkscape:groupmode="layer"
     id="layer1"
     transform="translate(-104.35681,-756.0438)"><path
       d="m 106.43175,756.04377 v 6.02186 h 26.60458 v 1.37408 c 0,0 -24.62633,-1.78099 -28.59464,16.69872 0,0 -1.8698,13.33629 11.94294,12.63385 0.75286,-0.0383 1.97733,-0.10261 2.7156,-0.22686 2.31946,-0.39036 6.8566,-2.05621 7.45122,-9.09763 0.18732,-4.81088 1.95234,-6.23683 1.95234,-6.23683 0,0 1.18351,-1.14811 4.49481,-1.59215 -0.0379,0.72072 0.0377,16.55971 0.0377,16.55971 l 5.98413,0.2682 v -30.11289 -1.82263 a 5.2940493,4.4304809 0 0 0 -5.01107,-4.42402 l -0.97306,-0.0434 z m 25.25065,13.32116 v 5.1e-4 c 0.44169,-0.005 0.89338,-0.002 1.35393,0.009 l -0.0377,3.28972 c -0.0272,-0.001 -6.65415,-0.26087 -9.98647,2.92643 0,0 -1.75969,1.31824 -2.43137,3.88142 -0.33537,1.2798 -0.48434,3.41265 -0.92966,4.67207 -0.0484,0.13685 -0.0988,0.2744 -0.15141,0.41186 -0.45391,1.18659 -2.19981,2.72364 -3.67265,2.67064 -1.16739,-0.042 -2.46843,-0.59635 -3.28869,-2.50218 0,0 -1.10476,-3.01098 0.7059,-7.18302 0,0 2.5394,-4.46741 7.38353,-6.39599 0,0 4.4292,-1.71085 11.05462,-1.78025 z"
       style="fill:#000000;stroke-width:1.2;stroke-miterlimit:0"
       id="path81" /></g></svg>
