<?xml version="1.0" standalone="no"?>
<!DOCTYPE svg PUBLIC "-//W3C//DTD SVG 20010904//EN"
 "http://www.w3.org/TR/2001/REC-SVG-20010904/DTD/svg10.dtd">
<svg version="1.0" xmlns="http://www.w3.org/2000/svg"
 width="115.000000pt" height="115.000000pt" viewBox="0 0 115.000000 115.000000"
 preserveAspectRatio="xMidYMid meet">
<metadata>
Created by potrace 1.14, written by Peter Selinger 2001-2017
</metadata>
<g transform="translate(0.000000,115.000000) scale(0.100000,-0.100000)"
fill="#000000" stroke="none">
<path d="M517 1002 c-31 -59 -76 -143 -100 -187 -24 -44 -69 -129 -101 -190
-33 -60 -67 -123 -76 -140 -25 -44 -78 -143 -150 -280 -35 -66 -67 -124 -71
-130 -31 -33 -15 -35 346 -35 195 0 355 2 355 5 0 3 -21 46 -47 95 l-47 90
-148 0 -148 0 44 83 c23 45 76 145 116 222 40 77 76 143 79 147 4 4 38 -50 76
-120 67 -124 87 -162 175 -327 23 -44 56 -106 74 -137 l31 -58 112 0 113 0
-36 67 c-20 38 -49 91 -64 118 -37 68 -98 182 -155 290 -26 50 -60 113 -75
140 -42 77 -91 169 -160 300 -35 66 -69 128 -75 137 -10 15 -20 1 -68 -90z"/>
</g>
</svg>
